<mxfile host="app.diagrams.net" modified="2020-09-01T11:20:02.960Z" agent="5.0 (Windows NT 10.0; Win64; x64) AppleWebKit/537.36 (KHTML, like Gecko) Chrome/85.0.4183.83 Safari/537.36" etag="GQhOoSi-kWeFU4zxNxZK" version="13.6.6" type="github">
  <diagram name="Page-1" id="2a216829-ef6e-dabb-86c1-c78162f3ba2b">
    <mxGraphModel dx="3673" dy="2047" grid="1" gridSize="10" guides="1" tooltips="1" connect="1" arrows="1" fold="1" page="1" pageScale="1" pageWidth="850" pageHeight="1100" background="#ffffff" math="0" shadow="0">
      <root>
        <mxCell id="0" />
        <mxCell id="1" parent="0" />
        <mxCell id="db8T54N4GuN8f7a-CfVu-3" style="edgeStyle=orthogonalEdgeStyle;rounded=0;orthogonalLoop=1;jettySize=auto;html=1;exitX=1;exitY=0.5;exitDx=0;exitDy=0;" edge="1" parent="1" source="7a84cebc1def654-2">
          <mxGeometry relative="1" as="geometry">
            <mxPoint x="290" y="59.758620689655174" as="targetPoint" />
          </mxGeometry>
        </mxCell>
        <mxCell id="7a84cebc1def654-2" value="" style="shape=ext;rounded=1;html=1;whiteSpace=wrap;" parent="1" vertex="1">
          <mxGeometry x="60" y="20" width="120" height="80" as="geometry" />
        </mxCell>
        <mxCell id="db8T54N4GuN8f7a-CfVu-1" value="&lt;font style=&quot;font-size: 14px&quot;&gt;Recipient A&lt;br&gt;(Looking for a &lt;br&gt;donor)&lt;br&gt;&lt;/font&gt;" style="text;html=1;resizable=0;autosize=1;align=center;verticalAlign=middle;points=[];fillColor=none;strokeColor=none;rounded=0;" vertex="1" parent="1">
          <mxGeometry x="70" y="25" width="100" height="50" as="geometry" />
        </mxCell>
        <mxCell id="db8T54N4GuN8f7a-CfVu-13" value="" style="edgeStyle=orthogonalEdgeStyle;rounded=0;orthogonalLoop=1;jettySize=auto;html=1;" edge="1" parent="1" source="db8T54N4GuN8f7a-CfVu-7" target="db8T54N4GuN8f7a-CfVu-12">
          <mxGeometry relative="1" as="geometry" />
        </mxCell>
        <mxCell id="db8T54N4GuN8f7a-CfVu-20" style="edgeStyle=orthogonalEdgeStyle;rounded=0;orthogonalLoop=1;jettySize=auto;html=1;entryX=0.5;entryY=0;entryDx=0;entryDy=0;" edge="1" parent="1" source="db8T54N4GuN8f7a-CfVu-7" target="db8T54N4GuN8f7a-CfVu-18">
          <mxGeometry relative="1" as="geometry" />
        </mxCell>
        <mxCell id="db8T54N4GuN8f7a-CfVu-7" value="Is Registered?" style="rhombus;whiteSpace=wrap;html=1;" vertex="1" parent="1">
          <mxGeometry x="280" y="10" width="100" height="100" as="geometry" />
        </mxCell>
        <mxCell id="db8T54N4GuN8f7a-CfVu-17" style="edgeStyle=orthogonalEdgeStyle;rounded=0;orthogonalLoop=1;jettySize=auto;html=1;" edge="1" parent="1" source="db8T54N4GuN8f7a-CfVu-9" target="db8T54N4GuN8f7a-CfVu-16">
          <mxGeometry relative="1" as="geometry" />
        </mxCell>
        <mxCell id="db8T54N4GuN8f7a-CfVu-9" value="More Information:&lt;br&gt;Age, Weight, Health, diabetes, Blood pressure, etc..&amp;nbsp;" style="whiteSpace=wrap;html=1;" vertex="1" parent="1">
          <mxGeometry x="270" y="260" width="120" height="60" as="geometry" />
        </mxCell>
        <mxCell id="db8T54N4GuN8f7a-CfVu-22" style="edgeStyle=orthogonalEdgeStyle;rounded=0;orthogonalLoop=1;jettySize=auto;html=1;" edge="1" parent="1" source="db8T54N4GuN8f7a-CfVu-12" target="db8T54N4GuN8f7a-CfVu-23">
          <mxGeometry relative="1" as="geometry">
            <mxPoint x="660" y="59.999999999999886" as="targetPoint" />
          </mxGeometry>
        </mxCell>
        <mxCell id="db8T54N4GuN8f7a-CfVu-12" value="Show Statistics&amp;nbsp;&lt;br&gt;Expected waiting time, How many Donors are out there&amp;nbsp;" style="whiteSpace=wrap;html=1;" vertex="1" parent="1">
          <mxGeometry x="450" y="30" width="120" height="60" as="geometry" />
        </mxCell>
        <mxCell id="db8T54N4GuN8f7a-CfVu-88" style="edgeStyle=orthogonalEdgeStyle;rounded=0;orthogonalLoop=1;jettySize=auto;html=1;entryX=0;entryY=0.5;entryDx=0;entryDy=0;" edge="1" parent="1" source="db8T54N4GuN8f7a-CfVu-16" target="db8T54N4GuN8f7a-CfVu-12">
          <mxGeometry relative="1" as="geometry" />
        </mxCell>
        <mxCell id="db8T54N4GuN8f7a-CfVu-89" style="edgeStyle=orthogonalEdgeStyle;rounded=0;orthogonalLoop=1;jettySize=auto;html=1;" edge="1" parent="1" source="db8T54N4GuN8f7a-CfVu-16" target="db8T54N4GuN8f7a-CfVu-34">
          <mxGeometry relative="1" as="geometry" />
        </mxCell>
        <mxCell id="db8T54N4GuN8f7a-CfVu-16" value="Select a Doctor" style="whiteSpace=wrap;html=1;" vertex="1" parent="1">
          <mxGeometry x="270" y="380" width="120" height="60" as="geometry" />
        </mxCell>
        <mxCell id="db8T54N4GuN8f7a-CfVu-21" style="edgeStyle=orthogonalEdgeStyle;rounded=0;orthogonalLoop=1;jettySize=auto;html=1;" edge="1" parent="1" source="db8T54N4GuN8f7a-CfVu-18" target="db8T54N4GuN8f7a-CfVu-9">
          <mxGeometry relative="1" as="geometry" />
        </mxCell>
        <mxCell id="db8T54N4GuN8f7a-CfVu-18" value="Basic Information" style="whiteSpace=wrap;html=1;" vertex="1" parent="1">
          <mxGeometry x="270" y="145" width="120" height="60" as="geometry" />
        </mxCell>
        <mxCell id="db8T54N4GuN8f7a-CfVu-35" style="edgeStyle=orthogonalEdgeStyle;rounded=0;orthogonalLoop=1;jettySize=auto;html=1;" edge="1" parent="1" source="db8T54N4GuN8f7a-CfVu-23" target="db8T54N4GuN8f7a-CfVu-25">
          <mxGeometry relative="1" as="geometry">
            <Array as="points">
              <mxPoint x="665" y="620" />
            </Array>
          </mxGeometry>
        </mxCell>
        <mxCell id="db8T54N4GuN8f7a-CfVu-23" value="&lt;font style=&quot;font-size: 11px&quot;&gt;Find a Donor&amp;nbsp;&lt;/font&gt;" style="rhombus;whiteSpace=wrap;html=1;" vertex="1" parent="1">
          <mxGeometry x="620" y="240" width="90" height="90" as="geometry" />
        </mxCell>
        <mxCell id="db8T54N4GuN8f7a-CfVu-29" style="edgeStyle=orthogonalEdgeStyle;rounded=0;orthogonalLoop=1;jettySize=auto;html=1;exitX=0.5;exitY=1;exitDx=0;exitDy=0;entryX=0.5;entryY=0;entryDx=0;entryDy=0;" edge="1" parent="1" source="db8T54N4GuN8f7a-CfVu-34" target="db8T54N4GuN8f7a-CfVu-25">
          <mxGeometry relative="1" as="geometry">
            <mxPoint x="330" y="585" as="sourcePoint" />
            <Array as="points">
              <mxPoint x="330" y="620" />
              <mxPoint x="520" y="620" />
            </Array>
          </mxGeometry>
        </mxCell>
        <mxCell id="db8T54N4GuN8f7a-CfVu-51" style="edgeStyle=orthogonalEdgeStyle;rounded=0;orthogonalLoop=1;jettySize=auto;html=1;" edge="1" parent="1" source="db8T54N4GuN8f7a-CfVu-25" target="db8T54N4GuN8f7a-CfVu-38">
          <mxGeometry relative="1" as="geometry" />
        </mxCell>
        <mxCell id="db8T54N4GuN8f7a-CfVu-25" value="Donor Information and Lab Results&amp;nbsp;" style="shape=ext;rounded=1;html=1;whiteSpace=wrap;arcSize=0;" vertex="1" parent="1">
          <mxGeometry x="460" y="790" width="120" height="80" as="geometry" />
        </mxCell>
        <mxCell id="db8T54N4GuN8f7a-CfVu-34" value="&lt;font style=&quot;font-size: 11px&quot;&gt;Have a Donor&amp;nbsp;&lt;/font&gt;" style="rhombus;whiteSpace=wrap;html=1;" vertex="1" parent="1">
          <mxGeometry x="285" y="500" width="90" height="90" as="geometry" />
        </mxCell>
        <mxCell id="db8T54N4GuN8f7a-CfVu-45" style="edgeStyle=orthogonalEdgeStyle;rounded=0;orthogonalLoop=1;jettySize=auto;html=1;" edge="1" parent="1" source="db8T54N4GuN8f7a-CfVu-36" target="db8T54N4GuN8f7a-CfVu-41">
          <mxGeometry relative="1" as="geometry" />
        </mxCell>
        <mxCell id="db8T54N4GuN8f7a-CfVu-36" value="Recipient B&amp;nbsp;&lt;br&gt;(have a donor )" style="shape=ext;rounded=1;html=1;whiteSpace=wrap;" vertex="1" parent="1">
          <mxGeometry x="70" y="790" width="120" height="80" as="geometry" />
        </mxCell>
        <mxCell id="db8T54N4GuN8f7a-CfVu-38" value="Organ info&amp;nbsp;&lt;br&gt;Success Rate&amp;nbsp;&lt;br&gt;Stats and etc..&lt;br&gt;Doctor opinion.." style="whiteSpace=wrap;html=1;" vertex="1" parent="1">
          <mxGeometry x="710" y="790" width="120" height="80" as="geometry" />
        </mxCell>
        <mxCell id="db8T54N4GuN8f7a-CfVu-47" style="edgeStyle=orthogonalEdgeStyle;rounded=0;orthogonalLoop=1;jettySize=auto;html=1;" edge="1" parent="1" source="db8T54N4GuN8f7a-CfVu-41" target="db8T54N4GuN8f7a-CfVu-44">
          <mxGeometry relative="1" as="geometry" />
        </mxCell>
        <mxCell id="db8T54N4GuN8f7a-CfVu-91" style="edgeStyle=orthogonalEdgeStyle;rounded=0;orthogonalLoop=1;jettySize=auto;html=1;" edge="1" parent="1" source="db8T54N4GuN8f7a-CfVu-41" target="db8T54N4GuN8f7a-CfVu-25">
          <mxGeometry relative="1" as="geometry" />
        </mxCell>
        <mxCell id="db8T54N4GuN8f7a-CfVu-41" value="Is Registered?" style="rhombus;whiteSpace=wrap;html=1;" vertex="1" parent="1">
          <mxGeometry x="270" y="780" width="100" height="100" as="geometry" />
        </mxCell>
        <mxCell id="db8T54N4GuN8f7a-CfVu-49" style="edgeStyle=orthogonalEdgeStyle;rounded=0;orthogonalLoop=1;jettySize=auto;html=1;" edge="1" parent="1" source="db8T54N4GuN8f7a-CfVu-42" target="db8T54N4GuN8f7a-CfVu-43">
          <mxGeometry relative="1" as="geometry" />
        </mxCell>
        <mxCell id="db8T54N4GuN8f7a-CfVu-42" value="More Information:&lt;br&gt;Age, Weight, Health, diabetes, Blood pressure, etc..&amp;nbsp;" style="whiteSpace=wrap;html=1;" vertex="1" parent="1">
          <mxGeometry x="260" y="1030" width="120" height="60" as="geometry" />
        </mxCell>
        <mxCell id="db8T54N4GuN8f7a-CfVu-90" style="edgeStyle=orthogonalEdgeStyle;rounded=0;orthogonalLoop=1;jettySize=auto;html=1;entryX=0;entryY=0.5;entryDx=0;entryDy=0;" edge="1" parent="1" source="db8T54N4GuN8f7a-CfVu-43" target="db8T54N4GuN8f7a-CfVu-25">
          <mxGeometry relative="1" as="geometry" />
        </mxCell>
        <mxCell id="db8T54N4GuN8f7a-CfVu-43" value="Select a Doctor" style="whiteSpace=wrap;html=1;" vertex="1" parent="1">
          <mxGeometry x="260" y="1150" width="120" height="60" as="geometry" />
        </mxCell>
        <mxCell id="db8T54N4GuN8f7a-CfVu-48" style="edgeStyle=orthogonalEdgeStyle;rounded=0;orthogonalLoop=1;jettySize=auto;html=1;" edge="1" parent="1" source="db8T54N4GuN8f7a-CfVu-44" target="db8T54N4GuN8f7a-CfVu-42">
          <mxGeometry relative="1" as="geometry" />
        </mxCell>
        <mxCell id="db8T54N4GuN8f7a-CfVu-44" value="Basic Information" style="whiteSpace=wrap;html=1;" vertex="1" parent="1">
          <mxGeometry x="260" y="915" width="120" height="55" as="geometry" />
        </mxCell>
        <mxCell id="db8T54N4GuN8f7a-CfVu-85" style="edgeStyle=orthogonalEdgeStyle;rounded=0;orthogonalLoop=1;jettySize=auto;html=1;" edge="1" parent="1" source="db8T54N4GuN8f7a-CfVu-52" target="db8T54N4GuN8f7a-CfVu-56">
          <mxGeometry relative="1" as="geometry" />
        </mxCell>
        <mxCell id="db8T54N4GuN8f7a-CfVu-52" value="Doctor&amp;nbsp;" style="shape=ext;rounded=1;html=1;whiteSpace=wrap;" vertex="1" parent="1">
          <mxGeometry x="60" y="1365" width="120" height="80" as="geometry" />
        </mxCell>
        <mxCell id="db8T54N4GuN8f7a-CfVu-68" style="edgeStyle=orthogonalEdgeStyle;rounded=0;orthogonalLoop=1;jettySize=auto;html=1;" edge="1" parent="1" source="db8T54N4GuN8f7a-CfVu-56" target="db8T54N4GuN8f7a-CfVu-67">
          <mxGeometry relative="1" as="geometry" />
        </mxCell>
        <mxCell id="db8T54N4GuN8f7a-CfVu-72" style="edgeStyle=orthogonalEdgeStyle;rounded=0;orthogonalLoop=1;jettySize=auto;html=1;" edge="1" parent="1" source="db8T54N4GuN8f7a-CfVu-56" target="db8T54N4GuN8f7a-CfVu-71">
          <mxGeometry relative="1" as="geometry" />
        </mxCell>
        <mxCell id="db8T54N4GuN8f7a-CfVu-56" value="Is Registered?" style="rhombus;whiteSpace=wrap;html=1;" vertex="1" parent="1">
          <mxGeometry x="285" y="1355" width="100" height="100" as="geometry" />
        </mxCell>
        <mxCell id="db8T54N4GuN8f7a-CfVu-87" style="edgeStyle=orthogonalEdgeStyle;rounded=0;orthogonalLoop=1;jettySize=auto;html=1;entryX=0;entryY=0.5;entryDx=0;entryDy=0;" edge="1" parent="1" source="db8T54N4GuN8f7a-CfVu-65" target="db8T54N4GuN8f7a-CfVu-71">
          <mxGeometry relative="1" as="geometry" />
        </mxCell>
        <mxCell id="db8T54N4GuN8f7a-CfVu-65" value="Add Patients .&amp;nbsp;" style="whiteSpace=wrap;html=1;" vertex="1" parent="1">
          <mxGeometry x="275" y="1628" width="120" height="60" as="geometry" />
        </mxCell>
        <mxCell id="db8T54N4GuN8f7a-CfVu-69" style="edgeStyle=orthogonalEdgeStyle;rounded=0;orthogonalLoop=1;jettySize=auto;html=1;exitX=0.5;exitY=1;exitDx=0;exitDy=0;" edge="1" parent="1" source="db8T54N4GuN8f7a-CfVu-67" target="db8T54N4GuN8f7a-CfVu-65">
          <mxGeometry relative="1" as="geometry" />
        </mxCell>
        <mxCell id="db8T54N4GuN8f7a-CfVu-67" value="Basic Information" style="whiteSpace=wrap;html=1;" vertex="1" parent="1">
          <mxGeometry x="275" y="1503" width="120" height="55" as="geometry" />
        </mxCell>
        <mxCell id="db8T54N4GuN8f7a-CfVu-74" style="edgeStyle=orthogonalEdgeStyle;rounded=0;orthogonalLoop=1;jettySize=auto;html=1;" edge="1" parent="1" source="db8T54N4GuN8f7a-CfVu-71" target="db8T54N4GuN8f7a-CfVu-73">
          <mxGeometry relative="1" as="geometry" />
        </mxCell>
        <mxCell id="db8T54N4GuN8f7a-CfVu-95" style="edgeStyle=orthogonalEdgeStyle;rounded=0;orthogonalLoop=1;jettySize=auto;html=1;" edge="1" parent="1" source="db8T54N4GuN8f7a-CfVu-71" target="db8T54N4GuN8f7a-CfVu-94">
          <mxGeometry relative="1" as="geometry">
            <Array as="points">
              <mxPoint x="600" y="1740" />
              <mxPoint x="820" y="1740" />
            </Array>
          </mxGeometry>
        </mxCell>
        <mxCell id="db8T54N4GuN8f7a-CfVu-71" value="Panel" style="shape=ext;rounded=1;html=1;whiteSpace=wrap;arcSize=0;" vertex="1" parent="1">
          <mxGeometry x="530" y="1370" width="140" height="70" as="geometry" />
        </mxCell>
        <mxCell id="db8T54N4GuN8f7a-CfVu-80" style="edgeStyle=orthogonalEdgeStyle;rounded=0;orthogonalLoop=1;jettySize=auto;html=1;" edge="1" parent="1" source="db8T54N4GuN8f7a-CfVu-73" target="db8T54N4GuN8f7a-CfVu-76">
          <mxGeometry relative="1" as="geometry" />
        </mxCell>
        <mxCell id="db8T54N4GuN8f7a-CfVu-73" value="Patients" style="whiteSpace=wrap;html=1;" vertex="1" parent="1">
          <mxGeometry x="790" y="1370" width="140" height="70" as="geometry" />
        </mxCell>
        <mxCell id="db8T54N4GuN8f7a-CfVu-82" style="edgeStyle=orthogonalEdgeStyle;rounded=0;orthogonalLoop=1;jettySize=auto;html=1;" edge="1" parent="1" source="db8T54N4GuN8f7a-CfVu-76" target="db8T54N4GuN8f7a-CfVu-81">
          <mxGeometry relative="1" as="geometry">
            <Array as="points">
              <mxPoint x="1100" y="1225" />
            </Array>
          </mxGeometry>
        </mxCell>
        <mxCell id="db8T54N4GuN8f7a-CfVu-76" value="View Potential Donors&amp;nbsp;" style="whiteSpace=wrap;html=1;" vertex="1" parent="1">
          <mxGeometry x="1030" y="1370" width="140" height="70" as="geometry" />
        </mxCell>
        <mxCell id="db8T54N4GuN8f7a-CfVu-83" style="edgeStyle=orthogonalEdgeStyle;rounded=0;orthogonalLoop=1;jettySize=auto;html=1;entryX=0.441;entryY=-0.059;entryDx=0;entryDy=0;entryPerimeter=0;" edge="1" parent="1" source="db8T54N4GuN8f7a-CfVu-81" target="db8T54N4GuN8f7a-CfVu-73">
          <mxGeometry relative="1" as="geometry">
            <Array as="points">
              <mxPoint x="852" y="1225" />
            </Array>
          </mxGeometry>
        </mxCell>
        <mxCell id="db8T54N4GuN8f7a-CfVu-81" value="Suggest professional Opinion" style="whiteSpace=wrap;html=1;" vertex="1" parent="1">
          <mxGeometry x="900" y="1190" width="140" height="70" as="geometry" />
        </mxCell>
        <mxCell id="db8T54N4GuN8f7a-CfVu-94" value="Success Rate , Over All info Total Donors , Total recipients" style="shape=ext;rounded=1;html=1;whiteSpace=wrap;arcSize=0;" vertex="1" parent="1">
          <mxGeometry x="740" y="1895" width="140" height="70" as="geometry" />
        </mxCell>
        <mxCell id="db8T54N4GuN8f7a-CfVu-100" style="edgeStyle=orthogonalEdgeStyle;rounded=0;orthogonalLoop=1;jettySize=auto;html=1;" edge="1" parent="1" source="db8T54N4GuN8f7a-CfVu-96" target="db8T54N4GuN8f7a-CfVu-97">
          <mxGeometry relative="1" as="geometry" />
        </mxCell>
        <mxCell id="db8T54N4GuN8f7a-CfVu-96" value="Health Employee" style="shape=ext;rounded=1;html=1;whiteSpace=wrap;" vertex="1" parent="1">
          <mxGeometry x="70" y="1890" width="120" height="80" as="geometry" />
        </mxCell>
        <mxCell id="db8T54N4GuN8f7a-CfVu-101" style="edgeStyle=orthogonalEdgeStyle;rounded=0;orthogonalLoop=1;jettySize=auto;html=1;" edge="1" parent="1" source="db8T54N4GuN8f7a-CfVu-97" target="db8T54N4GuN8f7a-CfVu-98">
          <mxGeometry relative="1" as="geometry" />
        </mxCell>
        <mxCell id="db8T54N4GuN8f7a-CfVu-102" style="edgeStyle=orthogonalEdgeStyle;rounded=0;orthogonalLoop=1;jettySize=auto;html=1;" edge="1" parent="1" source="db8T54N4GuN8f7a-CfVu-97" target="db8T54N4GuN8f7a-CfVu-103">
          <mxGeometry relative="1" as="geometry">
            <mxPoint x="450" y="1930" as="targetPoint" />
          </mxGeometry>
        </mxCell>
        <mxCell id="db8T54N4GuN8f7a-CfVu-97" value="Is Registered?" style="rhombus;whiteSpace=wrap;html=1;" vertex="1" parent="1">
          <mxGeometry x="295" y="1880" width="100" height="100" as="geometry" />
        </mxCell>
        <mxCell id="db8T54N4GuN8f7a-CfVu-105" style="edgeStyle=orthogonalEdgeStyle;rounded=0;orthogonalLoop=1;jettySize=auto;html=1;" edge="1" parent="1" source="db8T54N4GuN8f7a-CfVu-98" target="db8T54N4GuN8f7a-CfVu-99">
          <mxGeometry relative="1" as="geometry" />
        </mxCell>
        <mxCell id="db8T54N4GuN8f7a-CfVu-98" value="Basic Information" style="whiteSpace=wrap;html=1;" vertex="1" parent="1">
          <mxGeometry x="285" y="2028" width="120" height="55" as="geometry" />
        </mxCell>
        <mxCell id="db8T54N4GuN8f7a-CfVu-106" style="edgeStyle=orthogonalEdgeStyle;rounded=0;orthogonalLoop=1;jettySize=auto;html=1;" edge="1" parent="1" source="db8T54N4GuN8f7a-CfVu-99" target="db8T54N4GuN8f7a-CfVu-103">
          <mxGeometry relative="1" as="geometry" />
        </mxCell>
        <mxCell id="db8T54N4GuN8f7a-CfVu-99" value="Organization info" style="whiteSpace=wrap;html=1;" vertex="1" parent="1">
          <mxGeometry x="285" y="2153" width="120" height="60" as="geometry" />
        </mxCell>
        <mxCell id="db8T54N4GuN8f7a-CfVu-104" style="edgeStyle=orthogonalEdgeStyle;rounded=0;orthogonalLoop=1;jettySize=auto;html=1;" edge="1" parent="1" source="db8T54N4GuN8f7a-CfVu-103" target="db8T54N4GuN8f7a-CfVu-94">
          <mxGeometry relative="1" as="geometry" />
        </mxCell>
        <mxCell id="db8T54N4GuN8f7a-CfVu-103" value="Panel" style="shape=ext;rounded=1;html=1;whiteSpace=wrap;arcSize=0;" vertex="1" parent="1">
          <mxGeometry x="460" y="1895" width="140" height="70" as="geometry" />
        </mxCell>
        <mxCell id="db8T54N4GuN8f7a-CfVu-111" style="edgeStyle=orthogonalEdgeStyle;rounded=0;orthogonalLoop=1;jettySize=auto;html=1;" edge="1" parent="1" source="db8T54N4GuN8f7a-CfVu-107" target="db8T54N4GuN8f7a-CfVu-108">
          <mxGeometry relative="1" as="geometry" />
        </mxCell>
        <mxCell id="db8T54N4GuN8f7a-CfVu-107" value="DCD Patients" style="shape=ext;rounded=1;html=1;whiteSpace=wrap;" vertex="1" parent="1">
          <mxGeometry x="70" y="2350" width="120" height="80" as="geometry" />
        </mxCell>
        <mxCell id="db8T54N4GuN8f7a-CfVu-112" style="edgeStyle=orthogonalEdgeStyle;rounded=0;orthogonalLoop=1;jettySize=auto;html=1;" edge="1" parent="1" source="db8T54N4GuN8f7a-CfVu-108" target="db8T54N4GuN8f7a-CfVu-109">
          <mxGeometry relative="1" as="geometry" />
        </mxCell>
        <mxCell id="db8T54N4GuN8f7a-CfVu-113" style="edgeStyle=orthogonalEdgeStyle;rounded=0;orthogonalLoop=1;jettySize=auto;html=1;entryX=0;entryY=0.5;entryDx=0;entryDy=0;" edge="1" parent="1" source="db8T54N4GuN8f7a-CfVu-108" target="db8T54N4GuN8f7a-CfVu-110">
          <mxGeometry relative="1" as="geometry" />
        </mxCell>
        <mxCell id="db8T54N4GuN8f7a-CfVu-108" value="Is Registered?" style="rhombus;whiteSpace=wrap;html=1;" vertex="1" parent="1">
          <mxGeometry x="295" y="2340" width="100" height="100" as="geometry" />
        </mxCell>
        <mxCell id="db8T54N4GuN8f7a-CfVu-109" value="Basic Information" style="whiteSpace=wrap;html=1;" vertex="1" parent="1">
          <mxGeometry x="285" y="2488" width="120" height="55" as="geometry" />
        </mxCell>
        <mxCell id="db8T54N4GuN8f7a-CfVu-114" style="edgeStyle=orthogonalEdgeStyle;rounded=0;orthogonalLoop=1;jettySize=auto;html=1;" edge="1" parent="1" source="db8T54N4GuN8f7a-CfVu-110">
          <mxGeometry relative="1" as="geometry">
            <mxPoint x="720" y="2389.9999999999995" as="targetPoint" />
          </mxGeometry>
        </mxCell>
        <mxCell id="db8T54N4GuN8f7a-CfVu-110" value="Panel" style="shape=ext;rounded=1;html=1;whiteSpace=wrap;arcSize=0;" vertex="1" parent="1">
          <mxGeometry x="460" y="2355" width="140" height="70" as="geometry" />
        </mxCell>
        <mxCell id="db8T54N4GuN8f7a-CfVu-115" value="Information&amp;nbsp;&lt;br&gt;Potential recipient , Some stats&amp;nbsp;" style="shape=ext;rounded=1;html=1;whiteSpace=wrap;arcSize=0;" vertex="1" parent="1">
          <mxGeometry x="720" y="2355" width="140" height="70" as="geometry" />
        </mxCell>
      </root>
    </mxGraphModel>
  </diagram>
</mxfile>
